# xmcd CD database file
#
# Track frame offsets:
#	150
#	21235
#	38520
#	66393
#	91283
#	140508
#	167735
#	211675
#	233180
#	253855
#	268158
#	287358
#
# Disc length: 4172 seconds
#
# Revision: 3
# Processed by: cddbd v1.5.1PL0 Copyright (c) Steve Scherf et al.
# Submitted via: CDex 1.51
#
DISCID=a8104a0c
DTITLE=Gerry Mulligan - Verve Jazz Masters 36
DYEAR=1994
DGENRE=Jazz
TTITLE0=You Took Advantage of Me
TTITLE1=Manoir de Mes Rêves (aka ''Django's Castle'')
TTITLE2=Lady Chatterley's Mother
TTITLE3=Barbara's Theme
TTITLE4=Blueport
TTITLE5=Weep
TTITLE6=All About Rosie
TTITLE7=Chuggin'
TTITLE8=Summer's Over
TTITLE9=Israel
TTITLE10=Ballad
TTITLE11=Big City Blues
EXTD=YEAR: 1994
EXTT0=
EXTT1=
EXTT2=
EXTT3=
EXTT4=
EXTT5=
EXTT6=
EXTT7=
EXTT8=
EXTT9=
EXTT10=
EXTT11=
PLAYORDER=
